<svg width="20" height="23" viewBox="0 0 20 23" fill="none" xmlns="http://www.w3.org/2000/svg">
<path d="M17.1738 19.6641L17.8379 5.5918H18.9121C19.4004 5.5918 19.7812 5.21094 19.7812 4.72266C19.7812 4.24414 19.4004 3.86328 18.9121 3.86328H14.5762V2.53516C14.5762 1.03125 13.541 0.0644531 11.8711 0.0644531H8.38477C6.72461 0.0644531 5.68945 1.03125 5.68945 2.53516V3.86328H1.36328C0.884766 3.86328 0.494141 4.24414 0.494141 4.72266C0.494141 5.21094 0.884766 5.5918 1.36328 5.5918H2.44727L3.10156 19.6641C3.17969 21.1777 4.13672 22.0762 5.66016 22.0762H14.6348C16.1387 22.0762 17.1055 21.168 17.1738 19.6641ZM7.52539 2.62305C7.53516 2.08594 7.92578 1.70508 8.50195 1.70508H11.7637C12.3398 1.70508 12.7402 2.08594 12.7402 2.62305L12.75 3.86328H7.52539V2.62305ZM5.85547 20.3281C5.31836 20.3281 4.92773 19.9277 4.89844 19.3516L4.24414 5.5918H16.0117L15.3867 19.3516C15.3574 19.9375 14.9766 20.3281 14.4199 20.3281H5.85547ZM13.0234 18.7266C13.3848 18.7266 13.6484 18.4238 13.668 18.0137L13.9609 8.00391C13.9707 7.59375 13.6875 7.28125 13.3262 7.28125C12.9746 7.28125 12.6816 7.60352 12.6719 7.99414L12.3789 17.9941C12.3691 18.4043 12.6426 18.7266 13.0234 18.7266ZM7.26172 18.7266C7.63281 18.7266 7.91602 18.4043 7.90625 17.9941L7.61328 7.99414C7.59375 7.60352 7.30078 7.28125 6.95898 7.28125C6.58789 7.28125 6.31445 7.59375 6.32422 8.00391L6.61719 18.0137C6.62695 18.4238 6.90039 18.7266 7.26172 18.7266ZM10.1426 18.7266C10.4941 18.7266 10.7969 18.4043 10.7969 18.0137V7.99414C10.7969 7.60352 10.5039 7.28125 10.1426 7.28125C9.78125 7.28125 9.48828 7.60352 9.48828 7.99414V18.0137C9.48828 18.4043 9.78125 18.7266 10.1426 18.7266Z" fill="white"/>
</svg>
